# xmcd CD database file
#
# Track frame offsets:
#	150
#	29617
#	54222
#	89245
#	104851
#	128287
#	160687
#	187935
#	208043
#	231950
#	251806
#	282066
#
# Disc length: 4030 seconds
#
# Revision: 0
# Processed by: cddbd v1.5.2PL0 Copyright (c) Steve Scherf et al.
# Submitted via: CDex 1.70beta2
#
DISCID=a60fbc0c
DTITLE=Pat Metheny - What's It All About
DYEAR=2011
DGENRE=Jazz
TTITLE0=The Sound Of Silence
TTITLE1=Cherish
TTITLE2=Alfie
TTITLE3=Pipeline
TTITLE4=Garota De Ipanema
TTITLE5=Rainy Days And Mondays
TTITLE6=That's The Way I've Always Heard It Should Be
TTITLE7=Slow Hot Wind
TTITLE8=Betcha By Golly, Wow
TTITLE9=And I Love Her
TTITLE10='Round Midnight
TTITLE11=This Nearly Was Mine
EXTD=YEAR: 2011
EXTT0=
EXTT1=
EXTT2=
EXTT3=
EXTT4=
EXTT5=
EXTT6=
EXTT7=
EXTT8=
EXTT9=
EXTT10=
EXTT11=
PLAYORDER=
